<mxfile host="app.diagrams.net" modified="2024-02-05T23:10:15.701Z" agent="Mozilla/5.0 (Macintosh; Intel Mac OS X 10_15_7) AppleWebKit/605.1.15 (KHTML, like Gecko) Version/17.1 Safari/605.1.15" etag="FRymbsKfetQ-qiS1qY8q" version="23.1.1" type="device">
  <diagram name="Page-1" id="p8XZxSLciv-wmF-cNKwl">
    <mxGraphModel dx="855" dy="577" grid="1" gridSize="10" guides="1" tooltips="1" connect="1" arrows="1" fold="1" page="1" pageScale="1" pageWidth="827" pageHeight="1169" background="#D9F3F8" math="0" shadow="0">
      <root>
        <mxCell id="0" />
        <mxCell id="1" parent="0" />
        <mxCell id="bdButtcnnowy9X9QPUQ--1" value="" style="shape=umlLifeline;perimeter=lifelinePerimeter;whiteSpace=wrap;html=1;container=1;dropTarget=0;collapsible=0;recursiveResize=0;outlineConnect=0;portConstraint=eastwest;newEdgeStyle={&quot;curved&quot;:0,&quot;rounded&quot;:0};participant=umlActor;fillColor=none;size=43;" vertex="1" parent="1">
          <mxGeometry x="150" y="107" width="20" height="223" as="geometry" />
        </mxCell>
        <mxCell id="bdButtcnnowy9X9QPUQ--2" value="" style="html=1;points=[[0,0,0,0,5],[0,1,0,0,-5],[1,0,0,0,5],[1,1,0,0,-5]];perimeter=orthogonalPerimeter;outlineConnect=0;targetShapes=umlLifeline;portConstraint=eastwest;newEdgeStyle={&quot;curved&quot;:0,&quot;rounded&quot;:0};fillColor=#080606;strokeColor=#000000;" vertex="1" parent="bdButtcnnowy9X9QPUQ--1">
          <mxGeometry x="5" y="73" width="10" height="127" as="geometry" />
        </mxCell>
        <mxCell id="bdButtcnnowy9X9QPUQ--3" value="Coach&lt;br&gt;&lt;span style=&quot;font-weight: normal;&quot;&gt;(Actor)&lt;/span&gt;" style="text;align=center;fontStyle=1;verticalAlign=middle;spacingLeft=3;spacingRight=3;strokeColor=none;rotatable=0;points=[[0,0.5],[1,0.5]];portConstraint=eastwest;html=1;fontFamily=Poppins;fontSource=https%3A%2F%2Ffonts.googleapis.com%2Fcss%3Ffamily%3DPoppins;" vertex="1" parent="1">
          <mxGeometry x="120" y="70" width="80" height="26" as="geometry" />
        </mxCell>
        <mxCell id="bdButtcnnowy9X9QPUQ--4" value="" style="html=1;verticalAlign=bottom;endArrow=block;curved=0;rounded=0;" edge="1" parent="1" target="bdButtcnnowy9X9QPUQ--7">
          <mxGeometry x="-0.0008" relative="1" as="geometry">
            <mxPoint x="165" y="219.5" as="sourcePoint" />
            <mxPoint x="405" y="219.5" as="targetPoint" />
            <mxPoint as="offset" />
          </mxGeometry>
        </mxCell>
        <mxCell id="bdButtcnnowy9X9QPUQ--5" value="posti_session&lt;br&gt;(content, time, date, max_availability)" style="edgeLabel;html=1;align=center;verticalAlign=middle;resizable=0;points=[];fontFamily=Poppins;fontSource=https%3A%2F%2Ffonts.googleapis.com%2Fcss%3Ffamily%3DPoppins;labelBackgroundColor=#D9F3F8;" vertex="1" connectable="0" parent="bdButtcnnowy9X9QPUQ--4">
          <mxGeometry x="-0.0366" y="-2" relative="1" as="geometry">
            <mxPoint x="-2" y="-21" as="offset" />
          </mxGeometry>
        </mxCell>
        <mxCell id="bdButtcnnowy9X9QPUQ--6" value="&lt;font data-font-src=&quot;https://fonts.googleapis.com/css?family=Poppins&quot; face=&quot;Poppins&quot;&gt;Workshop&lt;br&gt;DB&lt;br&gt;&lt;/font&gt;" style="shape=umlLifeline;perimeter=lifelinePerimeter;whiteSpace=wrap;html=1;container=1;dropTarget=0;collapsible=0;recursiveResize=0;outlineConnect=0;portConstraint=eastwest;newEdgeStyle={&quot;curved&quot;:0,&quot;rounded&quot;:0};" vertex="1" parent="1">
          <mxGeometry x="385" y="96" width="100" height="234" as="geometry" />
        </mxCell>
        <mxCell id="bdButtcnnowy9X9QPUQ--27" value="" style="endArrow=open;endSize=12;dashed=1;html=1;rounded=0;" edge="1" parent="1" source="bdButtcnnowy9X9QPUQ--7">
          <mxGeometry x="0.0018" width="160" relative="1" as="geometry">
            <mxPoint x="349.5" y="260" as="sourcePoint" />
            <mxPoint x="165" y="260" as="targetPoint" />
            <mxPoint as="offset" />
          </mxGeometry>
        </mxCell>
        <mxCell id="bdButtcnnowy9X9QPUQ--28" value="execution sucessful" style="edgeLabel;html=1;align=center;verticalAlign=middle;resizable=0;points=[];fontFamily=Poppins;fontSource=https%3A%2F%2Ffonts.googleapis.com%2Fcss%3Ffamily%3DPoppins;labelBackgroundColor=#D9F3F8;" vertex="1" connectable="0" parent="1">
          <mxGeometry x="299.99655172413793" y="252" as="geometry" />
        </mxCell>
        <mxCell id="bdButtcnnowy9X9QPUQ--7" value="" style="html=1;points=[[0,0,0,0,5],[0,1,0,0,-5],[1,0,0,0,5],[1,1,0,0,-5]];perimeter=orthogonalPerimeter;outlineConnect=0;targetShapes=umlLifeline;portConstraint=eastwest;newEdgeStyle={&quot;curved&quot;:0,&quot;rounded&quot;:0};fillColor=#080606;strokeColor=#000000;" vertex="1" parent="1">
          <mxGeometry x="430" y="186" width="10" height="90" as="geometry" />
        </mxCell>
      </root>
    </mxGraphModel>
  </diagram>
</mxfile>
